<svg xmlns="http://www.w3.org/2000/svg" width="25" height="25" viewBox="0 0 25 25">
  <g id="homeIcon7" transform="translate(-983 -3342)">
    <path id="パス_196" data-name="パス 196" d="M16.579,6.331c3.338,0,3.733.013,5.051.073a6.919,6.919,0,0,1,2.321.43,4.14,4.14,0,0,1,2.372,2.372,6.918,6.918,0,0,1,.43,2.321c.06,1.318.073,1.713.073,5.051s-.013,3.733-.073,5.051a6.919,6.919,0,0,1-.43,2.321,4.14,4.14,0,0,1-2.372,2.372,6.919,6.919,0,0,1-2.321.43c-1.318.06-1.713.073-5.051.073s-3.733-.013-5.051-.073a6.919,6.919,0,0,1-2.321-.43,4.14,4.14,0,0,1-2.372-2.372A6.919,6.919,0,0,1,6.4,21.63c-.06-1.318-.073-1.713-.073-5.051s.013-3.733.073-5.051a6.918,6.918,0,0,1,.43-2.321A4.14,4.14,0,0,1,9.207,6.835a6.918,6.918,0,0,1,2.321-.43c1.318-.06,1.713-.073,5.051-.073m0-2.252c-3.395,0-3.82.014-5.154.075a9.175,9.175,0,0,0-3.034.581A6.392,6.392,0,0,0,4.735,8.391a9.175,9.175,0,0,0-.581,3.034c-.061,1.333-.075,1.759-.075,5.154s.014,3.82.075,5.154a9.175,9.175,0,0,0,.581,3.034,6.392,6.392,0,0,0,3.656,3.656A9.175,9.175,0,0,0,11.425,29c1.333.061,1.759.075,5.154.075s3.82-.014,5.154-.075a9.175,9.175,0,0,0,3.034-.581,6.392,6.392,0,0,0,3.656-3.656A9.175,9.175,0,0,0,29,21.733c.061-1.333.075-1.759.075-5.154s-.014-3.82-.075-5.154a9.175,9.175,0,0,0-.581-3.034,6.392,6.392,0,0,0-3.656-3.656,9.175,9.175,0,0,0-3.034-.581c-1.333-.061-1.759-.075-5.154-.075Z" transform="translate(978.921 3337.921)" fill="#1b2d3e"/>
    <path id="パス_197" data-name="パス 197" d="M133.054,126.635a6.419,6.419,0,1,0,6.419,6.419A6.419,6.419,0,0,0,133.054,126.635Zm0,10.586a4.167,4.167,0,1,1,4.167-4.167A4.167,4.167,0,0,1,133.054,137.221Z" transform="translate(862.446 3221.446)" fill="#1b2d3e"/>
    <circle id="楕円形_3" data-name="楕円形 3" cx="1.5" cy="1.5" r="1.5" transform="translate(1000.672 3346.327)" fill="#1b2d3e"/>
  </g>
</svg>
