<svg xmlns="http://www.w3.org/2000/svg" width="25" height="20.317" viewBox="0 0 25 20.317">
  <path id="homeIcon8" d="M1334.276,2776.213a14.514,14.514,0,0,1-7.862-2.3,10.541,10.541,0,0,0,1.224.072,10.3,10.3,0,0,0,6.37-2.2,5.137,5.137,0,0,1-4.793-3.563,5.078,5.078,0,0,0,.965.093,5.138,5.138,0,0,0,1.352-.18,5.132,5.132,0,0,1-4.115-5.028c0-.023,0-.044,0-.066a5.1,5.1,0,0,0,2.323.642,5.132,5.132,0,0,1-1.587-6.848,14.553,14.553,0,0,0,10.571,5.358,5.132,5.132,0,0,1,8.742-4.676,10.289,10.289,0,0,0,3.257-1.246,5.15,5.15,0,0,1-2.256,2.838,10.257,10.257,0,0,0,2.946-.809,10.477,10.477,0,0,1-2.558,2.657q.014.329.015.663a14.5,14.5,0,0,1-14.594,14.593" transform="translate(-1326.414 -2755.896)" fill="#1b2d3e"/>
</svg>
