<svg id="icon3" xmlns="http://www.w3.org/2000/svg" width="20" height="16.255" viewBox="0 0 20 16.255">
  <path id="パス_2290" data-name="パス 2290" d="M1332.7,2772.15a11.612,11.612,0,0,1-6.29-1.843,8.412,8.412,0,0,0,.979.057,8.238,8.238,0,0,0,5.1-1.756,4.109,4.109,0,0,1-3.834-2.851,4.051,4.051,0,0,0,.772.074,4.108,4.108,0,0,0,1.081-.144,4.106,4.106,0,0,1-3.292-4.022c0-.018,0-.035,0-.053a4.076,4.076,0,0,0,1.858.513,4.106,4.106,0,0,1-1.27-5.479,11.644,11.644,0,0,0,8.457,4.287,4.106,4.106,0,0,1,6.994-3.741,8.226,8.226,0,0,0,2.605-1,4.121,4.121,0,0,1-1.8,2.271,8.2,8.2,0,0,0,2.357-.647,8.374,8.374,0,0,1-2.047,2.125c.008.176.012.352.012.531a11.6,11.6,0,0,1-11.676,11.674" transform="translate(-1326.414 -2755.895)" fill="#97a0a8"/>
</svg>
